<svg version="1.2" xmlns="http://www.w3.org/2000/svg" viewBox="0 0 1500 1500" width="1500" height="1500">
	<title>lemnosNums-svg</title>
	<style>
		.s0 { fill: #d0d6da } 
	</style>
	<path id="Path 0" fill-rule="evenodd" class="s0" d="m689.6 0h28.8v243h-28.8zm49.9 0h70v136.7h-39.5v76h38.8l0.9 4.8c0.4 2.7 0.7 9.4 0.3 24.8h-68.8l-0.8-135.2 40.3-0.8v-75.9l-40.3-0.8zm-321.1 78.1c0.8 0.2 8.1 11.5 16.1 25.4 7.9 13.6 31.2 53.6 51.5 88.7 20.2 35 40.9 70.7 45.8 79.4 4.8 8.5 8.8 15.6 8.5 15.9-0.2 0.3-5.4 3.4-11.4 6.9-6.1 3.5-11.9 6.1-12.9 5.8-1.1-0.2-19.3-30.6-40.4-67.2-21.3-36.6-48.2-82.9-59.7-102.7-11.6-19.9-20.8-37-20.5-37.9 0.3-1.1 5.3-4.9 11.1-8.4 5.7-3.3 11-6.1 11.9-5.9zm694.2 14.6c0.4 0 6 3.2 12.4 7 6.5 3.8 12 7.1 12.2 7.3 0.3 0-4.4 8.6-10.4 19.1-6 10.5-33.1 57.6-60.3 104.8-27.2 47.2-49.6 86-49.9 86.3-0.3 0.1-6.1-2.9-12.8-6.9-6.7-4.1-12-7.9-11.5-8.8 0.3-0.9 12.7-22.6 27.6-48.6 14.7-26 38.9-67.9 53.6-93.4 14.6-25.5 29.2-50.9 32.4-56.5 3.3-5.8 6.4-10.3 6.7-10.3zm-756 24c1.1 1.3 9.1 15.2 18.1 30.7 8.8 15.4 23.1 40.1 31.6 54.6 8.7 14.6 27.9 48 43.1 74.2 15.1 25.9 27.5 47.6 27.5 48.1 0 0.5-5.3 3.6-11.8 7.3-6.4 3.5-12 6.5-12.5 6.8-0.4 0.3-4.5-5.9-9.1-13.6-4.4-7.8-16.1-27.8-25.8-44.5-9.7-16.8-33.3-57.3-52.1-90-19-32.8-34.3-60.3-34.2-61.2 0.3-0.7 5.5-4.5 11.9-8.2 10.3-6.2 11.5-6.5 13.3-4.2zm-222.3 204.3c0.9 0.3 23.1 12.9 49.5 27.9 26.3 15.2 67.6 38.9 91.9 52.9 24.1 13.9 48.9 28.2 55 31.7 6 3.3 10.9 7 10.9 7.8 0 0.7-8.7 16.5-19.1 34.9-10.5 18.4-19.2 33.6-19.3 33.9-0.2 0.1-25.5-14.2-56.4-31.9-31-17.7-77.4-44.4-103.3-59.3-25.9-14.9-48-27.6-49.2-28.2-1.5-0.8 2.6-9.1 16.6-33.7 10.2-18 19.3-33.6 20.2-34.7 0.9-1 2.3-1.6 3.2-1.3zm-1.1 56.8c0.3 0.7 7 5 15.2 9.8 8.2 4.7 43.6 25.1 78.7 45.1 35.1 20.2 64.1 36.8 64.5 36.7 0.3 0 2.9-4.2 5.6-9.2l5.1-9.1c-16-9.1-50.3-28.8-86.6-49.6-36.5-20.8-67.6-38.8-69.4-39.7-3.1-1.7-3.8-1-8.4 6.5-2.7 4.6-4.8 8.9-4.7 9.5zm1249.9-31c1 1 9.1 14.4 17.9 29.9 8.8 15.5 16.1 28.3 16.1 28.6 0 0.1-5.3 3.3-11.9 6.9-6.3 3.7-32.6 18.7-58 33.5-25.5 14.7-47.1 26.5-47.8 26.1-0.9-0.3-5.6-7.6-10.5-16.3-4.9-8.6-9.3-15.9-9.6-16.1-0.3-0.3-14.3 7.5-31.3 17.2-16.8 9.7-31.6 18.5-32.6 19.4-1.1 0.9-2 2-2 2.5 0 0.4 4.3 7.7 9.3 16.4 5 8.5 9.1 15.9 9.1 16.7 0 0.6-5.2 3.9-11.4 7.6-6.4 3.5-12.2 6.2-12.9 6-0.9-0.3-9-13.3-18.2-29.3-9.2-15.9-16.1-29.3-15.5-29.9 0.6-0.4 26.5-15.8 58-33.9 31.3-18 57.5-32.6 58.5-32.2 0.7 0.5 5.4 7.8 10.4 16.4 4.9 8.7 9 16 9.2 16.3 0 0.1 14.1-7.6 31.2-17.3 17.1-9.7 32.1-18.7 33.5-19.8 1.9-1.6 1-3.9-7.3-17.9-5.2-8.8-9.6-16.5-9.8-17.3-0.1-0.6 5.1-4.3 11.7-8.2 9.3-5.5 12.5-6.7 13.9-5.3zm-1301.2 61.9l16.4 9.3c8.9 5 39.6 22.5 68 38.9 28.4 16.2 67.6 38.9 87.4 50.1 19.5 11.3 36.1 20.8 36.7 21.4 0.8 0.5-1.8 6.6-5.6 13.6-3.8 6.8-7 12.4-7.3 12.4-0.1 0-36.6-20.7-80.8-46-44.3-25.4-91.1-52.3-103.9-59.7-12.9-7.4-23.7-14.4-24-15.3-0.3-1.1 1.4-5.2 3.7-9.2 2.1-4.1 5.1-9.1 6.6-11.4zm161 302.1l0.2 30.4h-106.3l-0.8 50.9h-135.2l-0.7-79.7 32.2-0.5c17.7-0.1 72.4-0.4 210.6-1.1zm-212.4 51.7h77.4v-21.3h-77.4zm1227.2-47.1h29l0.6 40.3 6.1-0.2c3.3 0 20.5-0.1 70.6-0.6v-27.3h28.8l0.2 4.1c0.2 2.4 0.2 8.5-0.2 23.2h77.5v-39.5h29.8l-0.2 69.1-242.2 0.8zm-24 267.2c12.7 7.3 44.3 25.5 70.3 40.4 25.8 14.9 62.4 35.8 81.3 46.6 18.8 10.9 34.3 19.7 34.4 19.9 0.3 0.1-2.6 5.9-6.3 12.8-3.8 6.9-7.2 12.6-7.6 12.6-0.5 0-21.2-11.7-46.1-26-24.7-14.3-45.8-25.5-46.6-25.2-0.9 0.4-6.1 8.8-11.7 18.7-5.6 10-11.1 19.2-12.1 20.8-1.9 2.5-6.3 0.3-59-30.1-31.3-18.1-57.7-33.4-58.4-34.2-1.1-0.9 1-5.8 12.9-25.8l91.9 52.9 4.8-7.8c2.8-4.4 4.9-8.8 4.6-10-0.2-1.1-19.8-13.2-43.6-26.9-23.9-13.7-43.9-25.7-44.7-26.7-0.7-1.4 0.5-4.9 3.7-10.4 2.7-4.5 5.9-9.8 7-11.7 1.9-3.3 2.1-3.3 25.2 10.1zm-940.8-9.4c1.1 1.5 10.2 16.8 20.1 34.1 10 17.5 18.2 31.9 18.2 32.4 0 0.4-14.6 9.1-32.4 19.3-17.7 10.1-41.7 24-53.4 30.8-11.7 6.8-32.5 18.8-46.4 26.9-13.8 7.9-36.7 21.1-50.8 29.1-14.3 8.2-26.3 14.3-26.9 13.6-0.5-0.6-9.6-16.1-20.1-34.4-10.6-18-19-33.2-18.8-33.5 0.3-0.3 17.5-10.5 38.4-22.7 20.8-12 67.8-39.1 104.1-60.1 60.4-34.9 66.2-38 68-35.5zm-71.5 71.5c-4 2.3-7.2 4.4-6.9 4.8 0.3 0.5 2.6 4.8 5.4 9.5l5 8.8c45.2-26.3 60.3-35 62.5-36.3l4.1-2.5c-7.6-12.7-10.4-16.7-11.3-17-0.8-0.3-12.8 6.1-26.6 14-13.7 8.1-28.3 16.4-32.2 18.7zm-98 58c-0.1 0.8 1.7 5.3 4.3 9.9l4.5 8.3c10-5.6 25.1-14.2 40-22.9 14.8-8.7 26.7-16.1 26.5-16.6-0.3-0.4-2.5-4.4-5-8.8-2.6-4.4-5.3-7.9-6-7.9-1 0-15.5 8.4-32.7 18.3-17.2 10-31.3 18.8-31.6 19.7zm910.9 70.6c0.4 0.2 3.7 5.3 7.4 11.6 3.5 6.2 6.2 11.8 5.9 12.7-0.4 0.8-7.9 5.7-16.8 10.7-8.9 5-16 9.5-15.8 10.1 0.3 0.5 8.6 15.4 18.6 33 10.1 17.6 18.9 31.9 19.8 31.9 0.7 0.1 8.5-4 17-9 8.7-5 16.1-9.1 16.7-9.1 0.6 0 14.7 23.4 31.1 52 16.6 28.7 31.8 54.9 37.7 65l-14.9 8.5c-8 4.7-18.5 10.8-23.1 13.5-4.5 2.6-11.4 6.5-22 12.6l-7.3-12.3c-3.9-6.8-7.3-12.8-7.1-13.2 0-0.5 7.3-4.9 16.1-9.9 8.9-5 16.4-9.6 16.7-10.3 0.3-0.6-7.8-15.5-18.1-33.1-10.2-17.8-18.8-32.4-19.3-32.7-0.4-0.1-3.8 1.5-7.6 3.8-3.8 2.3-11.5 6.7-27.3 15.4l-18.5-32.4c-10.2-17.6-25.2-43.9-33.4-58-8.2-14.3-15.1-26.1-15.2-26.6-0.3-0.4 12.9-8.5 29-17.8 16.2-9.2 29.9-16.7 30.4-16.4zm-565.8 0.8c0.9 0 14.4 7.3 30.1 16.4 15.6 9 28.5 16.7 28.5 17.3 0 0.8-7.4 14-16.5 29.6-9 15.8-35.4 61.7-58.7 102.2-23.2 40.6-43 74.5-43.9 75.5-1.3 1.4-4.4 0.3-13.5-4.8-9.1-5.3-11.5-7.5-10.8-9.6 0.5-1.4 16-28.9 34.5-61.1 18.4-32.2 41.6-72.4 51.5-89.6 16.3-28.4 17.6-31.3 15.2-33.1-1.4-1-9-5.4-16.7-9.8-7.8-4.5-14-8.7-14-9.5 0-0.9 2.9-6.5 6.4-12.6 3.3-5.9 7-10.9 7.9-10.9zm242.4 83.5h28.8v106.3h51.7v136.7l-79.7-0.7zm29.6 211.9l22 0.7v-75.9h-22.8z"/>
</svg>