<svg version="1.2" xmlns="http://www.w3.org/2000/svg" viewBox="0 0 1500 1500" width="1500" height="1500">
	<title>New Project</title>
	<style>
		.s0 { opacity: 1;fill: #d0d6da } 
	</style>
	<path id="Path 0" fill-rule="evenodd" class="s0" d="m712 258h19v160h-19zm32.9 0h46.1v90h-26v50h25.5l0.6 3.2c0.3 1.8 0.5 6.2 0.2 16.3h-45.3l-0.5-89 26.5-0.5v-50l-26.5-0.5zm-211.4 51.4c0.5 0.1 5.3 7.6 10.6 16.7 5.2 9 20.5 35.3 33.9 58.4 13.3 23.1 26.9 46.6 30.1 52.3 3.2 5.6 5.8 10.3 5.6 10.5-0.1 0.2-3.5 2.2-7.5 4.5-4 2.3-7.8 4-8.5 3.8-0.7-0.1-12.7-20.1-26.6-44.2-14-24.1-31.7-54.6-39.3-67.6-7.6-13.1-13.7-24.4-13.5-25 0.2-0.7 3.5-3.2 7.3-5.5 3.8-2.2 7.3-4 7.9-3.9zm457 9.6c0.3 0 4 2.1 8.2 4.6 4.3 2.5 7.9 4.7 8 4.8 0.2 0-2.9 5.7-6.8 12.6-4 6.9-21.8 37.9-39.7 69-17.9 31.1-32.7 56.6-32.9 56.8-0.2 0.1-4-1.9-8.4-4.5-4.4-2.7-7.9-5.2-7.6-5.8 0.2-0.6 8.4-14.9 18.2-32 9.7-17.1 25.6-44.7 35.3-61.5 9.6-16.8 19.2-33.5 21.3-37.2 2.2-3.8 4.2-6.8 4.4-6.8zm-497.7 15.8c0.7 0.9 6 10 11.9 20.2 5.8 10.2 15.2 26.4 20.8 36 5.7 9.6 18.4 31.6 28.4 48.8 9.9 17.1 18.1 31.4 18.1 31.7 0 0.3-3.5 2.4-7.8 4.8-4.2 2.3-7.9 4.3-8.2 4.5-0.3 0.2-3-3.9-6-9-2.9-5.1-10.6-18.3-17-29.3-6.4-11-21.9-37.7-34.3-59.2-12.5-21.6-22.6-39.7-22.5-40.3 0.2-0.5 3.6-3 7.8-5.4 6.8-4.1 7.6-4.3 8.8-2.8zm-146.4 134.5c0.6 0.2 15.2 8.5 32.6 18.4 17.3 10 44.5 25.6 60.5 34.8 15.9 9.2 32.2 18.6 36.2 20.9 4 2.2 7.2 4.6 7.2 5.1 0 0.5-5.7 10.9-12.6 23-6.9 12.1-12.6 22.1-12.7 22.3-0.1 0.1-16.8-9.3-37.1-21-20.4-11.6-51-29.2-68-39-17.1-9.8-31.6-18.2-32.4-18.6-1-0.5 1.7-6 10.9-22.2 6.7-11.8 12.7-22.1 13.3-22.8 0.6-0.7 1.5-1.1 2.1-0.9zm-0.7 37.4c0.2 0.5 4.6 3.3 10 6.5 5.4 3.1 28.7 16.5 51.8 29.7 23.1 13.3 42.2 24.2 42.5 24.1 0.2 0 1.9-2.7 3.7-6l3.3-6c-10.5-6-33.1-19-57-32.7-24-13.7-44.5-25.5-45.7-26.1-2-1.1-2.5-0.7-5.5 4.3-1.8 3-3.2 5.8-3.1 6.2zm822.9-20.4c0.7 0.7 6 9.5 11.8 19.7 5.8 10.2 10.6 18.6 10.6 18.8 0 0.1-3.5 2.2-7.8 4.6-4.2 2.4-21.5 12.3-38.2 22-16.8 9.7-31 17.5-31.5 17.2-0.6-0.2-3.7-5-6.9-10.7-3.2-5.7-6.1-10.5-6.3-10.6-0.2-0.2-9.4 4.9-20.6 11.3-11.1 6.4-20.8 12.2-21.5 12.8-0.7 0.6-1.3 1.3-1.3 1.6 0 0.3 2.8 5.1 6.1 10.8 3.3 5.6 6 10.5 6 11 0 0.4-3.4 2.6-7.5 5-4.2 2.3-8 4.1-8.5 4-0.6-0.2-5.9-8.8-12-19.3-6-10.5-10.6-19.3-10.2-19.7 0.4-0.3 17.5-10.4 38.2-22.3 20.6-11.9 37.9-21.5 38.5-21.2 0.5 0.3 3.6 5.1 6.9 10.8 3.2 5.7 5.9 10.5 6 10.7 0 0.1 9.3-5 20.6-11.4 11.2-6.4 21.1-12.3 22-13 1.3-1.1 0.7-2.6-4.8-11.8-3.4-5.8-6.3-10.9-6.4-11.4-0.1-0.4 3.3-2.8 7.7-5.4 6.1-3.6 8.2-4.4 9.1-3.5zm-856.7 40.8l10.8 6.1c5.9 3.3 26.1 14.8 44.8 25.6 18.7 10.7 44.5 25.6 57.5 33 12.9 7.4 23.8 13.7 24.2 14.1 0.5 0.3-1.2 4.3-3.7 8.9-2.5 4.5-4.6 8.2-4.8 8.2-0.1 0-24.1-13.6-53.2-30.3-29.2-16.7-60-34.4-68.4-39.3-8.5-4.9-15.6-9.5-15.8-10.1-0.2-0.7 0.9-3.4 2.4-6 1.4-2.7 3.4-6 4.4-7.5zm106 198.9l0.1 20h-70l-0.5 33.5h-89l-0.5-52.5 21.2-0.3c11.7-0.1 47.7-0.3 138.7-0.7zm-139.9 34h51v-14h-51zm808-31h19.1l0.4 26.5 4-0.1c2.2 0 13.5-0.1 46.5-0.4v-18h19l0.1 2.7c0.1 1.6 0.1 5.6-0.1 15.3h51v-26h19.6l-0.1 45.5-159.5 0.5zm-15.8 175.9c8.4 4.8 29.2 16.8 46.3 26.6 17 9.8 41.1 23.6 53.5 30.7 12.4 7.2 22.6 13 22.7 13.1 0.2 0.1-1.7 3.9-4.2 8.4-2.5 4.6-4.7 8.3-5 8.3-0.3 0-13.9-7.7-30.3-17.1-16.3-9.4-30.2-16.8-30.7-16.6-0.6 0.3-4 5.8-7.7 12.3-3.7 6.6-7.3 12.7-8 13.7-1.2 1.7-4.1 0.2-38.8-19.8-20.6-11.9-38-22-38.5-22.5-0.7-0.6 0.7-3.8 8.5-17l60.5 34.8 3.2-5.1c1.8-2.9 3.2-5.8 3-6.6-0.1-0.7-13-8.7-28.7-17.7-15.7-9-28.9-16.9-29.4-17.6-0.5-0.9 0.3-3.2 2.4-6.8 1.8-3 3.9-6.5 4.6-7.7 1.3-2.2 1.4-2.2 16.6 6.6zm-619.4-6.2c0.7 1 6.7 11.1 13.2 22.5 6.6 11.5 12 21 12 21.3 0 0.3-9.6 6-21.3 12.7-11.7 6.7-27.5 15.8-35.2 20.3-7.7 4.5-21.4 12.4-30.5 17.7-9.1 5.2-24.2 13.9-33.5 19.2-9.4 5.4-17.3 9.4-17.7 8.9-0.3-0.4-6.3-10.6-13.2-22.6-7-11.9-12.5-21.9-12.4-22.1 0.2-0.2 11.5-6.9 25.3-14.9 13.7-7.9 44.6-25.8 68.5-39.6 39.8-23 43.6-25 44.8-23.4zm-47.1 47.1c-2.6 1.5-4.7 2.9-4.5 3.2 0.2 0.3 1.7 3.1 3.5 6.2l3.3 5.8c29.8-17.3 39.7-23 41.2-23.9l2.7-1.6c-5-8.4-6.9-11-7.5-11.2-0.5-0.2-8.4 4-17.5 9.2-9 5.3-18.6 10.8-21.2 12.3zm-64.5 38.2c-0.1 0.5 1.1 3.5 2.8 6.5l3 5.5c6.6-3.7 16.5-9.4 26.3-15.1 9.8-5.7 17.6-10.6 17.5-10.9-0.2-0.3-1.7-2.9-3.3-5.8-1.7-2.9-3.5-5.2-4-5.2-0.6 0-10.2 5.5-21.5 12-11.3 6.6-20.6 12.4-20.8 13zm599.7 46.5c0.3 0.1 2.5 3.5 4.9 7.6 2.3 4.1 4.1 7.8 3.9 8.4-0.3 0.5-5.2 3.7-11.1 7-5.8 3.3-10.5 6.3-10.4 6.7 0.2 0.3 5.7 10.1 12.3 21.7 6.6 11.6 12.4 21 13 21 0.5 0.1 5.6-2.6 11.2-5.9 5.7-3.3 10.6-6 11-6 0.4 0 9.7 15.4 20.5 34.2 10.9 18.9 20.9 36.2 24.8 42.8l-9.8 5.6c-5.3 3.1-12.2 7.1-15.2 8.9-3 1.7-7.5 4.3-14.5 8.3l-4.8-8.1c-2.6-4.5-4.8-8.4-4.7-8.7 0-0.3 4.8-3.2 10.6-6.5 5.9-3.3 10.8-6.3 11-6.8 0.2-0.4-5.1-10.2-11.9-21.8-6.7-11.7-12.4-21.3-12.7-21.5-0.3-0.1-2.5 1-5 2.5-2.5 1.5-7.6 4.4-18 10.1l-12.2-21.3c-6.7-11.6-16.6-28.9-22-38.2-5.4-9.4-9.9-17.2-10-17.5-0.2-0.3 8.5-5.6 19.1-11.7 10.7-6.1 19.7-11 20-10.8zm-372.5 0.5c0.6 0 9.5 4.8 19.8 10.8 10.3 5.9 18.8 11 18.8 11.4 0 0.5-4.9 9.2-10.9 19.5-5.9 10.4-23.3 40.6-38.6 67.3-15.3 26.7-28.3 49-28.9 49.7-0.9 0.9-2.9 0.2-8.9-3.2-6-3.5-7.6-4.9-7.1-6.3 0.3-0.9 10.5-19 22.7-40.2 12.1-21.2 27.4-47.7 33.9-59 10.7-18.7 11.6-20.6 10-21.8-0.9-0.7-5.9-3.6-11-6.5-5.1-2.9-9.2-5.7-9.2-6.2 0-0.6 1.9-4.3 4.2-8.3 2.2-3.9 4.6-7.2 5.2-7.2zm159.6 55h19v70h34v90l-52.5-0.5zm19.5 139.5l14.5 0.5v-50h-15z"/>
</svg>